<svg aria-hidden="true" style="position: absolute; width: 0; height: 0; overflow: hidden;" version="1.1" xmlns="http://www.w3.org/2000/svg" xmlns:xlink="http://www.w3.org/1999/xlink">
<defs>
<symbol id="icon-clarity_star" viewBox="0 0 32 32">
<path fill="#fff" style="fill: var(--color1, #fff)" d="M24.169 30.222c-0.393-0-0.777-0.118-1.102-0.338l-6.631-4.444c-0.033-0.023-0.071-0.035-0.111-0.035s-0.078 0.012-0.111 0.035l-6.631 4.444c-0.333 0.222-0.726 0.338-1.126 0.332s-0.789-0.134-1.115-0.366c-0.326-0.232-0.574-0.558-0.71-0.935s-0.155-0.785-0.053-1.173l2.178-7.68c0.010-0.039 0.009-0.079-0.004-0.117s-0.036-0.071-0.068-0.096l-6.276-4.933c-0.33-0.246-0.575-0.589-0.701-0.982s-0.125-0.814 0.002-1.206c0.126-0.392 0.372-0.735 0.703-0.98s0.731-0.381 1.142-0.387l8-0.302c0.039-0.003 0.077-0.017 0.109-0.040s0.056-0.056 0.069-0.093l2.756-7.493c0.139-0.38 0.391-0.708 0.723-0.94s0.726-0.356 1.131-0.356 0.799 0.124 1.131 0.356c0.332 0.232 0.584 0.56 0.723 0.94l2.756 7.493c0.014 0.037 0.038 0.069 0.069 0.093s0.069 0.038 0.109 0.040l8 0.302c0.412 0.007 0.811 0.142 1.142 0.387s0.577 0.588 0.703 0.98c0.127 0.392 0.127 0.814 0.002 1.206s-0.37 0.736-0.701 0.982l-6.276 4.933c-0.032 0.024-0.057 0.057-0.069 0.095s-0.013 0.079-0.002 0.118l2.178 7.68c0.076 0.295 0.084 0.603 0.022 0.901s-0.192 0.578-0.379 0.818c-0.187 0.24-0.428 0.433-0.702 0.565s-0.575 0.199-0.879 0.196zM16.329 23.627c0.394 0.012 0.775 0.142 1.093 0.373l6.631 4.444c0.034 0.026 0.075 0.039 0.117 0.040s0.083-0.013 0.117-0.038c0.034-0.025 0.059-0.060 0.071-0.101s0.011-0.084-0.003-0.123l-2.178-7.68c-0.107-0.377-0.099-0.777 0.023-1.149s0.352-0.699 0.662-0.94l6.276-4.933c0.034-0.024 0.060-0.058 0.073-0.098s0.013-0.083 0.001-0.122c-0.013-0.040-0.038-0.074-0.072-0.099s-0.075-0.037-0.117-0.036l-8-0.302c-0.392-0.015-0.77-0.147-1.087-0.378s-0.557-0.551-0.691-0.92l-2.756-7.493c-0.012-0.040-0.037-0.075-0.071-0.099s-0.074-0.038-0.116-0.038c-0.042 0-0.082 0.013-0.116 0.038s-0.058 0.059-0.071 0.099l-2.729 7.484c-0.134 0.368-0.374 0.689-0.691 0.92s-0.695 0.363-1.087 0.378l-8 0.302c-0.042-0.001-0.083 0.012-0.117 0.036s-0.059 0.059-0.072 0.099-0.013 0.083 0 0.122c0.013 0.040 0.039 0.074 0.073 0.098l6.284 4.942c0.308 0.241 0.538 0.568 0.66 0.94s0.13 0.772 0.024 1.149l-2.169 7.68c-0.013 0.038-0.013 0.080-0 0.119s0.038 0.072 0.071 0.095c0.032 0.028 0.073 0.043 0.116 0.043s0.083-0.015 0.116-0.043l6.631-4.444c0.324-0.215 0.704-0.329 1.093-0.329l0.009-0.036z"></path>
</symbol>
<symbol id="icon-Group" viewBox="0 0 32 32">
<path fill="none"  stroke-linejoin="miter" stroke-linecap="butt" stroke-miterlimit="4" stroke-width="1.2" d="M0.6 16c0-8.505 6.895-15.4 15.4-15.4s15.4 6.895 15.4 15.4c0 8.505-6.895 15.4-15.4 15.4s-15.4-6.895-15.4-15.4z"></path>
<path d="M18.267 22.8l1.598-1.598-5.191-5.202 5.191-5.202-1.598-1.598-6.8 6.8 6.8 6.8z"></path>
</symbol>
<symbol id="icon-play-circle" viewBox="0 0 32 32">
<path d="M16 2c-7.731 0-14 6.269-14 14s6.269 14 14 14c7.731 0 14-6.269 14-14s-6.269-14-14-14zM20.503 16.216l-6.825 4.966c-0.037 0.027-0.082 0.043-0.127 0.046s-0.092-0.006-0.133-0.027-0.075-0.053-0.1-0.092c-0.024-0.039-0.037-0.084-0.037-0.131v-9.925c-0-0.046 0.012-0.091 0.037-0.131s0.058-0.071 0.1-0.092c0.041-0.021 0.087-0.030 0.133-0.027s0.090 0.020 0.127 0.047l6.825 4.963c0.032 0.023 0.059 0.053 0.077 0.088s0.028 0.074 0.028 0.113-0.009 0.078-0.028 0.113c-0.018 0.035-0.044 0.065-0.077 0.088z"></path>
</symbol>
<symbol id="icon-search" viewBox="0 0 32 32">
<path d="M21.767 19.865l7.173 7.173c0.252 0.252 0.394 0.594 0.394 0.951s-0.142 0.699-0.394 0.951c-0.252 0.252-0.594 0.394-0.951 0.394s-0.699-0.142-0.951-0.394l-7.173-7.173c-2.144 1.661-4.841 2.442-7.541 2.186s-5.201-1.532-6.994-3.568-2.743-4.677-2.658-7.388c0.086-2.711 1.201-5.288 3.119-7.206s4.494-3.033 7.206-3.119c2.711-0.086 5.353 0.865 7.388 2.658s3.311 4.294 3.568 6.994c0.257 2.7-0.525 5.397-2.186 7.541h0.001zM13.333 21.333c2.122 0 4.157-0.843 5.657-2.343s2.343-3.535 2.343-5.657c0-2.122-0.843-4.157-2.343-5.657s-3.535-2.343-5.657-2.343c-2.122 0-4.157 0.843-5.657 2.343s-2.343 3.535-2.343 5.657c0 2.122 0.843 4.157 2.343 5.657s3.535 2.343 5.657 2.343z"></path>
</symbol>
<symbol id="icon-clarity_star--active" viewBox="0 0 34 32">
<path fill="#ffea2b" style="fill: var(--color1, #ffea2b)" d="M17.143 0l-5.2 10.537-11.623 1.68 8.411 8.206-1.989 11.577 10.4-5.463 10.4 5.463-1.989-11.577 8.411-8.194-11.623-1.691-5.2-10.537z"></path>
</symbol>
</defs>
</svg>
